<?xml version="1.0" encoding="UTF-8"?>
<svg width="15px" height="12px" viewBox="0 0 15 12" version="1.1" xmlns="http://www.w3.org/2000/svg" xmlns:xlink="http://www.w3.org/1999/xlink">
    <!-- Generator: Sketch 46.2 (44496) - http://www.bohemiancoding.com/sketch -->
    <title>shuffle</title>
    <desc>Created with Sketch.</desc>
    <defs></defs>
    <g id="Page-1" stroke="none" stroke-width="1" fill="none" fill-rule="evenodd" opacity="0.5">
        <g id="Hint" transform="translate(-343.000000, -40.000000)" fill-rule="nonzero" fill="#FFFFFF">
            <g id="shuffle" transform="translate(343.000000, 40.000000)">
                <path d="M0.46875,11 C0.20953125,11 0,10.7862174 0,10.5217391 L0,9.56521739 C0,9.30073913 0.20953125,9.08695652 0.46875,9.08695652 L2.34375,9.08695652 L9.70640625,1.77291304 C9.81,1.65621739 10.048125,1.43478261 10.3125,1.43478261 L12.1875,1.43478261 L12.1875,0.47826087 C12.1875,0.285043478 12.301875,0.11 12.4767188,0.0363478261 C12.5353125,0.0119565217 12.5957813,0 12.65625,0 C12.778125,0 12.898125,0.0487826087 12.9876563,0.141086957 L14.8626563,2.05317391 C14.9507813,2.1426087 15,2.26408696 15,2.39130435 C15,2.51852174 14.9507813,2.64 14.8626563,2.72943478 L12.9876563,4.64343478 C12.898125,4.73382609 12.778125,4.7826087 12.65625,4.7826087 C12.5957813,4.7826087 12.534375,4.77065217 12.4767188,4.74626087 C12.301875,4.67165217 12.1875,4.49756522 12.1875,4.30434783 L12.1875,3.34782609 L10.78125,3.34782609 L3.4003125,10.6795652 C3.3684375,10.7197391 3.14765625,10.9626957 2.893125,10.9933043 C2.87953125,10.9952174 2.75296875,11 2.74828125,11 L0.46875,11 Z" id="Shape"></path>
                <path d="M0.421940928,3.02377941 L2.10970464,3.02377941 L3.80253165,5 L5,3.60156843 L3.06075949,1.33898305 C3.03206751,1.29648368 2.83333333,1.0394637 2.60421941,1.00708323 C2.59198312,1.00505945 2.47805907,1 2.47383966,1 L0.421940928,1 C0.188607595,1 0,1.22615735 0,1.50594485 L0,2.51783456 C0,2.79762206 0.188607595,3.02377941 0.421940928,3.02377941 Z" id="Shape"></path>
                <path d="M13.1040379,7.54878049 C13.0196845,7.46213094 12.9066246,7.41536769 12.7917981,7.41536769 C12.7348265,7.41536769 12.6769716,7.42682927 12.6226498,7.45021089 C12.457918,7.52173116 12.3501577,7.68861177 12.3501577,7.87383092 L12.3501577,8.79075738 L11.0252366,8.79075738 L9.25337539,7 L8,8.26719237 L10.0125552,10.3009353 C10.1101577,10.4123418 10.334511,10.6246103 10.5835962,10.6246103 L12.3501577,10.6246103 L12.3501577,11.5415368 C12.3501577,11.7267559 12.457918,11.8945535 12.6226498,11.9651568 C12.6778549,11.9885384 12.7348265,12 12.7917981,12 C12.9066246,12 13.0196845,11.9532368 13.1040379,11.8647533 L14.8705994,10.0318173 C14.9536278,9.94608472 15,9.82963506 15,9.70768384 C15,9.58573262 14.9536278,9.46928296 14.8705994,9.38355034 L13.1040379,7.54878049 Z" id="Shape"></path>
            </g>
        </g>
    </g>
</svg>